# xmcd
#
# Track frame offsets:
#	150
#	26458
#	47736
#	66894
#	86109
#	124239
#	143326
#	167973
#	185036
#	213438
#	243131
#	267661
#	290603
#	317703
#
# Disc length: 4642 seconds
#
# Revision: 1
# Processed by: cddbd v1.5.2PL0 Copyright (c) Steve Scherf et al.
# Submitted via: audiograbber 1.83.01
#
DISCID=d412200e
DTITLE=Dire Straits - Forever
DYEAR=2006
DGENRE=Blues
TTITLE0=Sultans Of Swing
TTITLE1=Wild West End
TTITLE2=Six Blade Knife
TTITLE3=News
TTITLE4=Money For Nothing
TTITLE5=Walk Of Life
TTITLE6=Water Of Love
TTITLE7=Lady Writer
TTITLE8=In The Gallery
TTITLE9=Your Latest Trick
TTITLE10=Once Upon A Time In The West
TTITLE11=Lions
TTITLE12=You And Your Friend
TTITLE13=Private Investigations
EXTD=
EXTT0=
EXTT1=
EXTT2=
EXTT3=
EXTT4=
EXTT5=
EXTT6=
EXTT7=
EXTT8=
EXTT9=
EXTT10=
EXTT11=
EXTT12=
EXTT13=
PLAYORDER=
